<?xml version="1.0" standalone="no"?>
<!DOCTYPE svg PUBLIC "-//W3C//DTD SVG 20010904//EN"
 "http://www.w3.org/TR/2001/REC-SVG-20010904/DTD/svg10.dtd">
<svg version="1.0" xmlns="http://www.w3.org/2000/svg"
 width="277.000000pt" height="277.000000pt" viewBox="0 0 277.000000 277.000000"
 preserveAspectRatio="xMidYMid meet">
<metadata>
Created by potrace 1.14, written by Peter Selinger 2001-2017
</metadata>
<g transform="translate(0.000000,277.000000) scale(0.100000,-0.100000)"
fill="#000000" stroke="none">
<path d="M228 2593 l-79 -78 3 -145 c3 -140 4 -146 31 -184 34 -49 34 -67 -1
-108 l-28 -33 -3 -445 c-1 -245 -4 -545 -6 -667 -3 -222 -3 -222 20 -237 49
-32 47 -118 -3 -145 -15 -8 -20 -19 -17 -43 2 -18 4 -86 4 -150 l1 -117 78
-80 78 -81 1075 0 1074 0 78 78 77 78 0 140 c0 103 -4 145 -15 164 -47 82 -48
112 -4 153 18 17 19 38 19 684 l0 667 -25 26 c-36 37 -37 92 -2 128 25 26 25
31 27 172 l1 145 -79 78 -79 77 -1073 0 -1073 0 -79 -77z"/>
</g>
</svg>
